# File created by Blade
# Date/Time:  Mon Sep 22 17:23:16 2014
# Frame Rate: 120.000 fps
#------------------------------------------------------
:FULLY-SPECIFIED
:DEGREES
2030
root 3.936961 37.064517 0.243205 -20.753367 -12.998533 -5.360235
RightUpLeg -59.608083 -41.804147 -20.729184
RightLeg 99.971282 -0.000000 -0.000000
RightFoot 5.266212 -24.041928 18.628926
RightToeBase 4.089402 -0.000000 -0.000000
LeftUpLeg 23.500170 8.350549 -2.694984
LeftLeg 11.548248 -0.000000 -0.000000
LeftFoot -20.143866 14.465841 -15.965907
LeftToeBase 7.376375 -0.000000 -0.000000
Spine 29.681513 -1.223951 -5.896992
RightShoulder 9.835888 -20.336426 -10.261940
RightArm 43.857131 -30.475711 42.179164
RightForeArm -180.731838 -0.000000 101.309553
RightHand 99.330790 -0.000000 -168.223804
RightHandThumb1 -24.326973 -0.000000 -32.862282
LeftShoulder -13.722857 27.246122 8.330663
LeftArm 68.406183 -15.718626 -57.709554
LeftForeArm 62.859984 -0.000000 101.771731
LeftHand -25.618642 -0.000000 -23.807917
LeftHandThumb1 -26.253704 0.000000 33.147579
Head 1.941000 9.493436 12.554973
2031
root 3.920737 37.069691 0.260046 -20.689160 -13.383985 -5.549600
RightUpLeg -59.400912 -41.865342 -20.892280
RightLeg 99.666502 -0.000000 -0.000000
RightFoot 5.068363 -24.160575 18.588802
RightToeBase 4.011295 -0.000000 -0.000000
LeftUpLeg 23.549380 8.420127 -2.497876
LeftLeg 11.507496 -0.000000 -0.000000
LeftFoot -20.288851 14.690758 -16.018885
LeftToeBase 7.485433 -0.000000 -0.000000
Spine 29.582611 -1.108965 -5.667371
RightShoulder 9.854101 -20.282462 -10.305248
RightArm 44.059292 -30.600455 42.105589
RightForeArm -180.616460 -0.000000 101.452105
RightHand 99.443692 -0.000000 -168.359504
RightHandThumb1 -24.326973 -0.000000 -32.862282
LeftShoulder -13.770037 27.329394 8.220812
LeftArm 68.408567 -15.763058 -57.902098
LeftForeArm 62.944720 -0.000000 101.732856
LeftHand -25.951833 -0.000000 -23.857526
LeftHandThumb1 -26.253704 0.000000 33.147579
Head 2.015044 9.765042 12.469669
2032
root 3.900788 37.077891 0.285846 -20.671018 -13.737503 -5.822382
RightUpLeg -59.013589 -41.943195 -21.108612
RightLeg 99.421966 -0.000000 -0.000000
RightFoot 4.678898 -24.127277 18.758231
RightToeBase 4.183426 -0.000000 -0.000000
LeftUpLeg 23.679741 8.429032 -2.229249
LeftLeg 11.463984 -0.000000 -0.000000
LeftFoot -20.421761 14.951037 -16.002963
LeftToeBase 7.502403 -0.000000 -0.000000
Spine 29.553197 -1.036610 -5.334639
RightShoulder 9.854485 -20.266745 -10.379436
RightArm 44.207251 -30.690238 42.086005
RightForeArm -180.454299 -0.000000 101.590504
RightHand 99.449026 -0.000000 -168.352441
RightHandThumb1 -24.326973 -0.000000 -32.862282
LeftShoulder -13.813928 27.403928 8.102827
LeftArm 68.438906 -15.795559 -58.165643
LeftForeArm 63.148324 0.000000 101.660942
LeftHand -25.984849 -0.000000 -23.789415
LeftHandThumb1 -26.253704 0.000000 33.147579
Head 2.084981 10.030947 12.350360
2033
root 3.882300 37.085300 0.306353 -20.621672 -14.053330 -6.057444
RightUpLeg -58.726326 -42.063907 -21.312038
RightLeg 99.184761 -0.000000 -0.000000
RightFoot 4.500761 -24.246493 18.738594
RightToeBase 4.151078 -0.000000 -0.000000
LeftUpLeg 23.727552 8.377636 -2.042375
LeftLeg 11.473610 -0.000000 -0.000000
LeftFoot -20.495344 15.314024 -15.903767
LeftToeBase 7.369017 -0.000000 -0.000000
Spine 29.491786 -0.935791 -5.047746
RightShoulder 9.820600 -20.284283 -10.418812
RightArm 44.320526 -30.778453 42.096915
RightForeArm -180.295887 -0.000000 101.733435
RightHand 99.476609 0.000000 -168.346723
RightHandThumb1 -24.326973 -0.000000 -32.862282
LeftShoulder -13.820738 27.444763 8.017589
LeftArm 68.477034 -15.818100 -58.355921
LeftForeArm 63.186694 -0.000000 101.536915
LeftHand -26.078302 -0.000000 -23.719628
LeftHandThumb1 -26.253704 0.000000 33.147579
Head 2.143229 10.214174 12.288711
2034
root 3.864246 37.093884 0.327165 -20.584888 -14.369620 -6.300335
RightUpLeg -58.410625 -42.149728 -21.528264
RightLeg 98.972171 -0.000000 -0.000000
RightFoot 4.243457 -24.355898 18.866624
RightToeBase 4.229512 -0.000000 -0.000000
LeftUpLeg 23.791640 8.374413 -1.817919
LeftLeg 11.480278 -0.000000 -0.000000
LeftFoot -20.507309 15.592639 -15.814005
LeftToeBase 7.124968 -0.000000 -0.000000
Spine 29.459547 -0.825274 -4.737417
RightShoulder 9.773088 -20.314280 -10.465635
RightArm 44.353726 -30.863088 42.227565
RightForeArm -180.088718 -0.000000 101.854219
RightHand 99.586080 0.000000 -168.404590
RightHandThumb1 -24.326973 -0.000000 -32.862282
LeftShoulder -13.844410 27.469334 7.913500
LeftArm 68.523498 -15.833276 -58.521009
LeftForeArm 63.275751 -0.000000 101.425438
LeftHand -25.940565 -0.000000 -23.769816
LeftHandThumb1 -26.253704 0.000000 33.147579
Head 2.189498 10.431895 12.177932
2035
root 3.844669 37.102365 0.348574 -20.536239 -14.661023 -6.537100
RightUpLeg -58.123587 -42.271340 -21.749808
RightLeg 98.822142 -0.000000 -0.000000
RightFoot 4.102172 -24.420781 18.901668
RightToeBase 4.082866 -0.000000 -0.000000
LeftUpLeg 23.843122 8.334314 -1.616983
LeftLeg 11.492452 -0.000000 -0.000000
LeftFoot -20.468127 15.953024 -15.565197
LeftToeBase 6.726049 -0.000000 -0.000000
Spine 29.405086 -0.749411 -4.465435
RightShoulder 9.729949 -20.377416 -10.474235
RightArm 44.427418 -30.916888 42.277126
RightForeArm -179.851960 -0.000000 101.956791
RightHand 99.577345 -0.000000 -168.205670
RightHandThumb1 -24.326973 -0.000000 -32.862282
LeftShoulder -13.902635 27.471877 7.823168
LeftArm 68.547473 -15.816268 -58.646491
LeftForeArm 63.286862 -0.000000 101.292043
LeftHand -25.980831 -0.000000 -23.649570
LeftHandThumb1 -26.253704 0.000000 33.147579
Head 2.253048 10.677716 12.076633
2036
root 3.815157 37.107812 0.373186 -20.441628 -15.052289 -6.733936
RightUpLeg -58.003180 -42.254549 -21.885381
RightLeg 98.738740 -0.000000 -0.000000
RightFoot 4.038684 -24.558749 18.983244
RightToeBase 4.138027 -0.000000 -0.000000
LeftUpLeg 23.879979 8.446782 -1.391849
LeftLeg 11.459616 -0.000000 -0.000000
LeftFoot -20.279493 16.341099 -15.123653
LeftToeBase 5.940929 -0.000000 -0.000000
Spine 29.236904 -0.507917 -4.198277
RightShoulder 9.661994 -20.513082 -10.440107
RightArm 44.441686 -30.989455 42.397674
RightForeArm -179.679415 -0.000000 102.051314
RightHand 99.565790 -0.000000 -168.073700
RightHandThumb1 -24.326973 -0.000000 -32.862282
LeftShoulder -13.925386 27.490012 7.780007
LeftArm 68.572365 -15.782868 -58.722969
LeftForeArm 63.267725 -0.000000 101.158880
LeftHand -25.988476 -0.000000 -23.685083
LeftHandThumb1 -26.253704 0.000000 33.147579
Head 2.366872 10.883948 12.063316
2037
root 3.791682 37.115087 0.403429 -20.421501 -15.392026 -6.942417
RightUpLeg -57.726772 -42.288863 -22.138885
RightLeg 98.681389 -0.000000 -0.000000
RightFoot 4.041384 -24.546683 18.923054
RightToeBase 4.169324 -0.000000 -0.000000
LeftUpLeg 24.006629 8.404137 -1.231495
LeftLeg 11.393083 -0.000000 -0.000000
LeftFoot -20.209384 16.797463 -14.854344
LeftToeBase 5.524963 -0.000000 -0.000000
Spine 29.180652 -0.338743 -3.921423
RightShoulder 9.642022 -20.589649 -10.427770
RightArm 44.388583 -31.056401 42.496956
RightForeArm -179.434701 -0.000000 102.145025
RightHand 99.656437 0.000000 -168.209567
RightHandThumb1 -24.326973 -0.000000 -32.862282
LeftShoulder -13.976155 27.512478 7.703331
LeftArm 68.640487 -15.753352 -58.847883
LeftForeArm 63.194722 -0.000000 101.032771
LeftHand -26.009277 0.000000 -23.677526
LeftHandThumb1 -26.253704 0.000000 33.147579
Head 2.445144 11.125698 12.020993
2038
root 3.767010 37.123530 0.427546 -20.388889 -15.697168 -7.186494
RightUpLeg -57.454285 -42.339152 -22.365024
RightLeg 98.638435 -0.000000 -0.000000
RightFoot 4.145100 -24.625718 18.849167
RightToeBase 4.171010 -0.000000 -0.000000
LeftUpLeg 24.087618 8.427374 -0.984249
LeftLeg 11.409823 -0.000000 -0.000000
LeftFoot -20.130847 17.122790 -14.557204
LeftToeBase 5.118702 -0.000000 -0.000000
Spine 29.148482 -0.222149 -3.625797
RightShoulder 9.618720 -20.666552 -10.412086
RightArm 44.382027 -31.135361 42.576388
RightForeArm -179.268398 -0.000000 102.192427
RightHand 99.695049 -0.000000 -167.898362
RightHandThumb1 -24.326973 -0.000000 -32.862282
LeftShoulder -14.057019 27.534625 7.592322
LeftArm 68.734337 -15.747445 -58.921818
LeftForeArm 63.184696 -0.000000 100.893632
LeftHand -26.007714 -0.000000 -23.696087
LeftHandThumb1 -26.253704 0.000000 33.147579
Head 2.509553 11.376376 11.914523
2039
root 3.742181 37.130560 0.453956 -20.374643 -16.039407 -7.369950
RightUpLeg -57.219866 -42.333522 -22.623881
RightLeg 98.631318 -0.000000 -0.000000
RightFoot 4.210066 -24.641452 18.872214
RightToeBase 4.235235 -0.000000 -0.000000
LeftUpLeg 24.208205 8.409449 -0.839515
LeftLeg 11.344880 -0.000000 -0.000000
LeftFoot -20.058319 17.558687 -14.325615
LeftToeBase 4.754004 -0.000000 -0.000000
Spine 29.113919 -0.031637 -3.394233
RightShoulder 9.591359 -20.723043 -10.357935
RightArm 44.331846 -31.248583 42.689020
RightForeArm -179.300742 -0.000000 102.226785
RightHand 99.666268 -0.000000 -167.769739
RightHandThumb1 -24.326973 -0.000000 -32.862282
LeftShoulder -14.138060 27.526621 7.522101
LeftArm 68.800431 -15.724988 -58.943655
LeftForeArm 63.114887 0.000000 100.757762
LeftHand -26.113032 -0.000000 -23.565409
LeftHandThumb1 -26.253704 0.000000 33.147579
Head 2.563682 11.615894 11.919249
